<?xml version="1.0" encoding="UTF-8"?>
<svg width="20px" height="20px" viewBox="0 0 20 20" version="1.1" xmlns="http://www.w3.org/2000/svg" xmlns:xlink="http://www.w3.org/1999/xlink">
    <title>ic-arrow</title>
    <g id="MVP-[MOBILE]-----20/07/2020" stroke="none" stroke-width="1" fill="none" fill-rule="evenodd">
        <g id="ic-arrow">
            <polygon id="Path" transform="translate(10.000000, 10.000000) rotate(-90.000000) translate(-10.000000, -10.000000) " points="0 0 20 0 20 20 0 20"></polygon>
            <path d="M9.73579678,13.3024597 L4.39579678,7.96245972 C4.28279678,7.85745972 4.28279678,7.75145972 4.39579678,7.64445972 C5.04579678,7.03445972 5.32579678,6.70845972 5.33379678,6.70845972 C5.46079678,6.59845972 5.57379678,6.60045972 5.67379678,6.71645972 L9.76379678,10.8064597 C9.90479678,10.9024597 10.0457968,10.9024597 10.1857968,10.8074597 L14.2637968,6.72945972 C14.3827968,6.58245972 14.5107968,6.58545972 14.6467968,6.73745972 C14.6467968,6.73745972 15.5597968,7.64445972 15.5597968,7.65045972 C15.6317968,7.76545972 15.6267968,7.87245972 15.5447968,7.97345972 L10.2147968,13.3024597 C10.0547968,13.4444597 9.89579678,13.4444597 9.73579678,13.3024597 L9.73579678,13.3024597 Z" id="Path" fill="#94949e" fill-rule="nonzero" transform="translate(9.960669, 10.015128) rotate(-90.000000) translate(-9.960669, -10.015128) "></path>
        </g>
    </g>
</svg>
